<?xml version="1.0" encoding="UTF-8" standalone="no"?>
<!-- Created with Inkscape (http://www.inkscape.org/) -->

<svg
   xmlns:dc="http://purl.org/dc/elements/1.1/"
   xmlns:cc="http://creativecommons.org/ns#"
   xmlns:rdf="http://www.w3.org/1999/02/22-rdf-syntax-ns#"
   xmlns:svg="http://www.w3.org/2000/svg"
   xmlns="http://www.w3.org/2000/svg"
   xmlns:sodipodi="http://sodipodi.sourceforge.net/DTD/sodipodi-0.dtd"
   xmlns:inkscape="http://www.inkscape.org/namespaces/inkscape"
   width="256"
   height="256"
   viewBox="0 0 256 256"
   id="svg4488"
   version="1.1"
   inkscape:version="0.91 r13725"
   sodipodi:docname="buttonC.svg">
  <defs
     id="defs4490" />
  <sodipodi:namedview
     id="base"
     pagecolor="#ffffff"
     bordercolor="#666666"
     borderopacity="1.0"
     inkscape:pageopacity="0.0"
     inkscape:pageshadow="2"
     inkscape:zoom="2"
     inkscape:cx="39.891079"
     inkscape:cy="146.43058"
     inkscape:document-units="px"
     inkscape:current-layer="layer1"
     showgrid="false"
     units="px"
     inkscape:window-width="1680"
     inkscape:window-height="985"
     inkscape:window-x="0"
     inkscape:window-y="0"
     inkscape:window-maximized="1"
     inkscape:snap-nodes="true"
     inkscape:snap-bbox="false"
     inkscape:bbox-nodes="false" />
  <metadata
     id="metadata4493">
    <rdf:RDF>
      <cc:Work
         rdf:about="">
        <dc:format>image/svg+xml</dc:format>
        <dc:type
           rdf:resource="http://purl.org/dc/dcmitype/StillImage" />
        <dc:title />
      </cc:Work>
    </rdf:RDF>
  </metadata>
  <g
     inkscape:label="Layer 1"
     inkscape:groupmode="layer"
     id="layer1"
     transform="translate(0,-796.36216)">
    <circle
       style="opacity:1;fill:#e8e500;fill-opacity:1;fill-rule:nonzero;stroke:#a09e00;stroke-width:5;stroke-linecap:butt;stroke-linejoin:round;stroke-miterlimit:4;stroke-dasharray:none;stroke-dashoffset:0;stroke-opacity:1"
       id="path5207"
       cx="128"
       cy="-924.36218"
       r="125.5"
       transform="scale(1,-1)" />
    <path
       style="fill:#706e00;fill-opacity:1;fill-rule:evenodd;stroke:#444300;stroke-width:2;stroke-linecap:butt;stroke-linejoin:miter;stroke-miterlimit:4;stroke-dasharray:none;stroke-opacity:1"
       d="m 141.69557,907.78129 30.19593,0 0,-47.5085 c 0,-19.28655 -16.21237,-33.0871 -43.78438,-32.85015 -27.57203,0.23694 -43.998625,15.67021 -43.998625,32.85015 l 0,47.5085 0,33.16149 0,47.50786 c 0,24.72356 23.269635,32.67226 43.998625,32.85086 20.19867,0.1742 43.78438,-6.7241 43.78438,-32.85086 l 0,-47.50786 -30.19593,0 0,30.76618 c 0,11.57017 -4.55926,16.74168 -13.58845,16.74168 -8.93939,0 -13.8027,-4.8209 -13.8027,-16.74168 l 0,-30.76618 0,-33.16149 0.21441,-30.76612 c 0,-9.46812 2.88823,-16.74168 13.58836,-16.74168 10.70015,0 13.58838,7.9743 13.58838,16.74133 z"
       id="path13067"
       inkscape:connector-curvature="0"
       sodipodi:nodetypes="ccczccccsccccscccczcc" />
    <g
       transform="translate(143.17545,97.240832)"
       id="layer1-2"
       inkscape:label="Layer 1" />
  </g>
</svg>
