<?xml version="1.0" encoding="UTF-8" standalone="no"?>
<!-- Created with Inkscape (http://www.inkscape.org/) -->

<svg
   xmlns:dc="http://purl.org/dc/elements/1.1/"
   xmlns:cc="http://creativecommons.org/ns#"
   xmlns:rdf="http://www.w3.org/1999/02/22-rdf-syntax-ns#"
   xmlns:svg="http://www.w3.org/2000/svg"
   xmlns="http://www.w3.org/2000/svg"
   xmlns:sodipodi="http://sodipodi.sourceforge.net/DTD/sodipodi-0.dtd"
   xmlns:inkscape="http://www.inkscape.org/namespaces/inkscape"
   width="256"
   height="256"
   viewBox="0 0 256 256"
   id="svg2"
   version="1.1"
   inkscape:version="0.91 r13725"
   sodipodi:docname="buttonB.svg">
  <defs
     id="defs4" />
  <sodipodi:namedview
     id="base"
     pagecolor="#ffffff"
     bordercolor="#666666"
     borderopacity="1.0"
     inkscape:pageopacity="0.0"
     inkscape:pageshadow="2"
     inkscape:zoom="0.70710678"
     inkscape:cx="196.44581"
     inkscape:cy="108.51907"
     inkscape:document-units="px"
     inkscape:current-layer="layer1"
     showgrid="false"
     units="px"
     inkscape:window-width="1680"
     inkscape:window-height="985"
     inkscape:window-x="0"
     inkscape:window-y="0"
     inkscape:window-maximized="1" />
  <metadata
     id="metadata7">
    <rdf:RDF>
      <cc:Work
         rdf:about="">
        <dc:format>image/svg+xml</dc:format>
        <dc:type
           rdf:resource="http://purl.org/dc/dcmitype/StillImage" />
        <dc:title></dc:title>
      </cc:Work>
    </rdf:RDF>
  </metadata>
  <g
     inkscape:label="Layer 1"
     inkscape:groupmode="layer"
     id="layer1"
     transform="translate(0,-796.36219)">
    <circle
       style="opacity:1;fill:#008109;fill-opacity:1;fill-rule:nonzero;stroke:#004e06;stroke-width:5;stroke-linecap:round;stroke-linejoin:bevel;stroke-miterlimit:4;stroke-dasharray:none;stroke-dashoffset:0;stroke-opacity:1"
       id="path4136"
       cx="128"
       cy="924.36218"
       r="125.5" />
    <path
       style="fill:#006406;fill-opacity:1;fill-rule:evenodd;stroke:#003507;stroke-width:2;stroke-linecap:butt;stroke-linejoin:round;stroke-miterlimit:4;stroke-dasharray:none;stroke-opacity:1"
       d="m 49.5,833.48717 0,181.75003 47.75,0 c 12.80215,0 21.5,-9.2632 21.5,-22.00003 l 0,-52.5 c 0,-11.66726 -5.33759,-20.75 -13.5,-20.75 7.78621,0 13.5,-8.99086 13.5,-19.25 l 0,-45 c 0,-12.73471 -10.1962,-21.77654 -21.5,-22.25 z m 27.261719,15.24414 4.726561,0 c 5.66176,0 8,1.82258 8,8.00977 l 0,42.11523 c 0,5.3077 -1.10266,7.30274 -8,7.30274 l -4.726561,0 z m 0,83.07813 4.726561,0 c 5.66176,0 8,1.82257 8,8.00976 l 0,54.11524 c 0,5.3077 -1.10266,7.30276 -8,7.30276 l -4.726561,0 z"
       id="path4185"
       inkscape:connector-curvature="0"
       sodipodi:nodetypes="ccssscsssccsssscccsssscc" />
  </g>
</svg>
